<svg width="32" height="32" xmlns="http://www.w3.org/2000/svg">
 <title/>
 <desc/>

 <g>
  <title>background</title>
  <rect fill="none" id="canvas_background" height="402" width="582" y="-1" x="-1"/>
 </g>
 <g>
  <title>Layer 1</title>
  <path stroke-width="0.5" stroke="#000000" fill="none" id="file-pdf" d="m8.053146,10c-1.66064,0 -3.00685,1.34226 -3.00685,2.99879l0,7.00242c0,1.65619 1.33599,2.99879 3.00685,2.99879l16.9863,0c1.66064,0 3.00685,-1.34226 3.00685,-2.99879l0,-7.00242c0,-1.65619 -1.33599,-2.99879 -3.00685,-2.99879l-16.9863,0l0,0zm-0.01229,1c-1.10156,0 -1.99456,0.90018 -1.99456,1.99202l0,7.01596c0,1.10016 0.90234,1.99202 1.99456,1.99202l17.01088,0c1.10156,0 1.99456,-0.90018 1.99456,-1.99202l0,-7.01596c0,-1.10016 -0.90234,-1.99202 -1.99456,-1.99202l-17.01088,0l0,0zm13.00544,5l0,-2l4,0l0,-1l-5,0l0,7l1,0l0,-3l3,0l0,-1l-3,0l0,0zm-13,-1l0,5l1,0l0,-3l1.99512,0c1.10726,0 2.00488,-0.88773 2.00488,-2c0,-1.10457 -0.8939,-2 -2.00488,-2l-2.99512,0l0,2l0,0zm1,-1l0,2l2.00104,0c0.55171,0 0.99896,-0.44386 0.99896,-1c0,-0.55228 -0.44266,-1 -0.99896,-1l-2.00104,0l0,0zm5,-1l0,7l2.99512,0c1.10726,0 2.00488,-0.88655 2.00488,-2.00592l0,-2.98816c0,-1.10784 -0.8939,-2.00592 -2.00488,-2.00592l-2.99512,0l0,0zm1,1l0,5l2.00104,0c0.55171,0 0.99896,-0.44372 0.99896,-0.99981l0,-3.00038c0,-0.55218 -0.44266,-0.99981 -0.99896,-0.99981l-2.00104,0l0,0z"/>
 </g>
</svg>